<?xml version="1.0" standalone="no"?><!DOCTYPE svg PUBLIC "-//W3C//DTD SVG 1.1//EN" "http://www.w3.org/Graphics/SVG/1.1/DTD/svg11.dtd"><svg t="1709718243556" class="icon" viewBox="0 0 1024 1024" version="1.1" xmlns="http://www.w3.org/2000/svg" p-id="38363" xmlns:xlink="http://www.w3.org/1999/xlink" width="200" height="200"><path d="M510.976 62.464c-247.296 0-448 200.704-448 448s200.704 448 448 448 448-200.704 448-448-200.704-448-448-448z m0 175.104c32.768 0 59.904 26.624 59.904 59.904 0 32.768-26.624 59.904-59.904 59.904s-59.904-26.624-59.904-59.904 27.136-59.904 59.904-59.904z m0 700.416c-117.76 0-213.504-95.744-213.504-213.504 0-117.76 90.624-213.504 213.504-213.504 117.76 0 213.504-95.744 213.504-213.504 0-111.616-85.504-203.264-194.56-212.992l-0.512-0.512c227.328 9.728 409.088 197.12 409.088 427.008-0.512 236.032-191.488 427.008-427.52 427.008z" fill="#1afa29" p-id="38364"></path><path d="M451.072 724.48c0 32.768 26.624 59.904 59.904 59.904 32.768 0 59.904-26.624 59.904-59.904 0-32.768-26.624-59.904-59.904-59.904-32.768 0-59.904 26.624-59.904 59.904z" fill="#1afa29" p-id="38365"></path></svg>