<?xml version="1.0" standalone="no"?><!DOCTYPE svg PUBLIC "-//W3C//DTD SVG 1.1//EN" "http://www.w3.org/Graphics/SVG/1.1/DTD/svg11.dtd"><svg height="957" node-id="1" sillyvg="true" template-height="957" template-width="530" version="1.1" viewBox="0 0 530 957" width="530" xmlns="http://www.w3.org/2000/svg" xmlns:xlink="http://www.w3.org/1999/xlink"><defs node-id="86"><clipPath id="mask-2" node-id="18"><path d="M 176.46 231.46 L 174.77 240.67 L 172.82 248.24 L 170.66 254.39 L 168.35 259.31 L 165.90 263.19 L 163.36 266.20 L 160.71 268.46 L 157.93 270.06 L 155.00 271.09 L 155.00 303.40 L 216.00 308.00 L 206.52 281.42 L 205.11 277.47 L 204.28 273.33 L 204.04 268.95 L 204.41 264.30 L 205.44 259.30 L 207.21 253.90 L 209.81 248.05 L 213.35 241.69 L 196.14 219.00 L 176.46 231.46 Z" fill="#000000" fill-rule="evenodd" node-id="91" stroke="none" target-height="89" target-width="61" target-x="155" target-y="219"></path></clipPath><clipPath id="mask-4_14" node-id="23"><path d="M 270.00 126.03 L 255.72 212.40 L 253.75 219.05 L 251.48 224.88 L 248.94 229.97 L 246.15 234.39 L 243.11 238.20 L 239.83 241.47 L 236.30 244.22 L 232.48 246.50 L 228.37 248.33 L 223.91 249.69 L 219.06 250.59 L 213.78 250.98 L 208.00 250.84 L 201.67 250.11 L 194.73 248.73 L 188.36 246.93 L 182.56 244.74 L 177.28 242.16 L 172.48 239.21 L 168.12 235.88 L 164.17 232.17 L 160.61 228.06 L 157.43 223.53 L 154.61 218.53 L 152.17 213.03 L 150.12 206.98 L 148.47 200.33 L 147.26 193.02 L 146.53 185.00 L 146.30 176.18 L 142.14 175.38 L 138.44 174.12 L 135.15 172.42 L 132.22 170.29 L 129.60 167.70 L 127.28 164.61 L 125.26 160.95 L 123.56 156.65 L 122.21 151.61 L 121.24 145.74 L 121.02 141.14 L 121.36 137.38 L 122.17 134.29 L 123.52 131.41 L 125.19 129.13 L 127.19 127.36 L 129.50 126.00 L 132.01 125.08 L 134.74 124.61 L 137.53 124.57 L 140.37 124.94 L 143.28 125.73 L 146.06 126.90 L 148.72 128.44 L 151.25 130.39 L 153.50 132.65 L 155.45 135.26 L 157.11 138.26 L 157.11 70.00 L 268.46 78.24 L 270.00 126.03 Z" fill="#000000" fill-rule="evenodd" node-id="98" stroke="none" target-height="180.98271" target-width="148.98434" target-x="121.01566" target-y="70"></path></clipPath><clipPath id="mask-4_13" node-id="23"><path d="M 270.00 126.03 L 255.72 212.40 L 253.75 219.05 L 251.48 224.88 L 248.94 229.97 L 246.15 234.39 L 243.11 238.20 L 239.83 241.47 L 236.30 244.22 L 232.48 246.50 L 228.37 248.33 L 223.91 249.69 L 219.06 250.59 L 213.78 250.98 L 208.00 250.84 L 201.67 250.11 L 194.73 248.73 L 188.36 246.93 L 182.56 244.74 L 177.28 242.16 L 172.48 239.21 L 168.12 235.88 L 164.17 232.17 L 160.61 228.06 L 157.43 223.53 L 154.61 218.53 L 152.17 213.03 L 150.12 206.98 L 148.47 200.33 L 147.26 193.02 L 146.53 185.00 L 146.30 176.18 L 142.14 175.38 L 138.44 174.12 L 135.15 172.42 L 132.22 170.29 L 129.60 167.70 L 127.28 164.61 L 125.26 160.95 L 123.56 156.65 L 122.21 151.61 L 121.24 145.74 L 121.02 141.14 L 121.36 137.38 L 122.17 134.29 L 123.52 131.41 L 125.19 129.13 L 127.19 127.36 L 129.50 126.00 L 132.01 125.08 L 134.74 124.61 L 137.53 124.57 L 140.37 124.94 L 143.28 125.73 L 146.06 126.90 L 148.72 128.44 L 151.25 130.39 L 153.50 132.65 L 155.45 135.26 L 157.11 138.26 L 157.11 70.00 L 268.46 78.24 L 270.00 126.03 Z" fill="#000000" fill-rule="evenodd" node-id="98" stroke="none" target-height="180.98271" target-width="148.98434" target-x="121.01566" target-y="70"></path></clipPath><clipPath id="mask-4_12" node-id="23"><path d="M 270.00 126.03 L 255.72 212.40 L 253.75 219.05 L 251.48 224.88 L 248.94 229.97 L 246.15 234.39 L 243.11 238.20 L 239.83 241.47 L 236.30 244.22 L 232.48 246.50 L 228.37 248.33 L 223.91 249.69 L 219.06 250.59 L 213.78 250.98 L 208.00 250.84 L 201.67 250.11 L 194.73 248.73 L 188.36 246.93 L 182.56 244.74 L 177.28 242.16 L 172.48 239.21 L 168.12 235.88 L 164.17 232.17 L 160.61 228.06 L 157.43 223.53 L 154.61 218.53 L 152.17 213.03 L 150.12 206.98 L 148.47 200.33 L 147.26 193.02 L 146.53 185.00 L 146.30 176.18 L 142.14 175.38 L 138.44 174.12 L 135.15 172.42 L 132.22 170.29 L 129.60 167.70 L 127.28 164.61 L 125.26 160.95 L 123.56 156.65 L 122.21 151.61 L 121.24 145.74 L 121.02 141.14 L 121.36 137.38 L 122.17 134.29 L 123.52 131.41 L 125.19 129.13 L 127.19 127.36 L 129.50 126.00 L 132.01 125.08 L 134.74 124.61 L 137.53 124.57 L 140.37 124.94 L 143.28 125.73 L 146.06 126.90 L 148.72 128.44 L 151.25 130.39 L 153.50 132.65 L 155.45 135.26 L 157.11 138.26 L 157.11 70.00 L 268.46 78.24 L 270.00 126.03 Z" fill="#000000" fill-rule="evenodd" node-id="98" stroke="none" target-height="180.98271" target-width="148.98434" target-x="121.01566" target-y="70"></path></clipPath><clipPath id="mask-4_11" node-id="23"><path d="M 270.00 126.03 L 255.72 212.40 L 253.75 219.05 L 251.48 224.88 L 248.94 229.97 L 246.15 234.39 L 243.11 238.20 L 239.83 241.47 L 236.30 244.22 L 232.48 246.50 L 228.37 248.33 L 223.91 249.69 L 219.06 250.59 L 213.78 250.98 L 208.00 250.84 L 201.67 250.11 L 194.73 248.73 L 188.36 246.93 L 182.56 244.74 L 177.28 242.16 L 172.48 239.21 L 168.12 235.88 L 164.17 232.17 L 160.61 228.06 L 157.43 223.53 L 154.61 218.53 L 152.17 213.03 L 150.12 206.98 L 148.47 200.33 L 147.26 193.02 L 146.53 185.00 L 146.30 176.18 L 142.14 175.38 L 138.44 174.12 L 135.15 172.42 L 132.22 170.29 L 129.60 167.70 L 127.28 164.61 L 125.26 160.95 L 123.56 156.65 L 122.21 151.61 L 121.24 145.74 L 121.02 141.14 L 121.36 137.38 L 122.17 134.29 L 123.52 131.41 L 125.19 129.13 L 127.19 127.36 L 129.50 126.00 L 132.01 125.08 L 134.74 124.61 L 137.53 124.57 L 140.37 124.94 L 143.28 125.73 L 146.06 126.90 L 148.72 128.44 L 151.25 130.39 L 153.50 132.65 L 155.45 135.26 L 157.11 138.26 L 157.11 70.00 L 268.46 78.24 L 270.00 126.03 Z" fill="#000000" fill-rule="evenodd" node-id="98" stroke="none" target-height="180.98271" target-width="148.98434" target-x="121.01566" target-y="70"></path></clipPath><clipPath id="mask-4_10" node-id="23"><path d="M 270.00 126.03 L 255.72 212.40 L 253.75 219.05 L 251.48 224.88 L 248.94 229.97 L 246.15 234.39 L 243.11 238.20 L 239.83 241.47 L 236.30 244.22 L 232.48 246.50 L 228.37 248.33 L 223.91 249.69 L 219.06 250.59 L 213.78 250.98 L 208.00 250.84 L 201.67 250.11 L 194.73 248.73 L 188.36 246.93 L 182.56 244.74 L 177.28 242.16 L 172.48 239.21 L 168.12 235.88 L 164.17 232.17 L 160.61 228.06 L 157.43 223.53 L 154.61 218.53 L 152.17 213.03 L 150.12 206.98 L 148.47 200.33 L 147.26 193.02 L 146.53 185.00 L 146.30 176.18 L 142.14 175.38 L 138.44 174.12 L 135.15 172.42 L 132.22 170.29 L 129.60 167.70 L 127.28 164.61 L 125.26 160.95 L 123.56 156.65 L 122.21 151.61 L 121.24 145.74 L 121.02 141.14 L 121.36 137.38 L 122.17 134.29 L 123.52 131.41 L 125.19 129.13 L 127.19 127.36 L 129.50 126.00 L 132.01 125.08 L 134.74 124.61 L 137.53 124.57 L 140.37 124.94 L 143.28 125.73 L 146.06 126.90 L 148.72 128.44 L 151.25 130.39 L 153.50 132.65 L 155.45 135.26 L 157.11 138.26 L 157.11 70.00 L 268.46 78.24 L 270.00 126.03 Z" fill="#000000" fill-rule="evenodd" node-id="98" stroke="none" target-height="180.98271" target-width="148.98434" target-x="121.01566" target-y="70"></path></clipPath><clipPath id="mask-4_9" node-id="23"><path d="M 270.00 126.03 L 255.72 212.40 L 253.75 219.05 L 251.48 224.88 L 248.94 229.97 L 246.15 234.39 L 243.11 238.20 L 239.83 241.47 L 236.30 244.22 L 232.48 246.50 L 228.37 248.33 L 223.91 249.69 L 219.06 250.59 L 213.78 250.98 L 208.00 250.84 L 201.67 250.11 L 194.73 248.73 L 188.36 246.93 L 182.56 244.74 L 177.28 242.16 L 172.48 239.21 L 168.12 235.88 L 164.17 232.17 L 160.61 228.06 L 157.43 223.53 L 154.61 218.53 L 152.17 213.03 L 150.12 206.98 L 148.47 200.33 L 147.26 193.02 L 146.53 185.00 L 146.30 176.18 L 142.14 175.38 L 138.44 174.12 L 135.15 172.42 L 132.22 170.29 L 129.60 167.70 L 127.28 164.61 L 125.26 160.95 L 123.56 156.65 L 122.21 151.61 L 121.24 145.74 L 121.02 141.14 L 121.36 137.38 L 122.17 134.29 L 123.52 131.41 L 125.19 129.13 L 127.19 127.36 L 129.50 126.00 L 132.01 125.08 L 134.74 124.61 L 137.53 124.57 L 140.37 124.94 L 143.28 125.73 L 146.06 126.90 L 148.72 128.44 L 151.25 130.39 L 153.50 132.65 L 155.45 135.26 L 157.11 138.26 L 157.11 70.00 L 268.46 78.24 L 270.00 126.03 Z" fill="#000000" fill-rule="evenodd" node-id="98" stroke="none" target-height="180.98271" target-width="148.98434" target-x="121.01566" target-y="70"></path></clipPath><clipPath id="mask-4_8" node-id="23"><path d="M 270.00 126.03 L 255.72 212.40 L 253.75 219.05 L 251.48 224.88 L 248.94 229.97 L 246.15 234.39 L 243.11 238.20 L 239.83 241.47 L 236.30 244.22 L 232.48 246.50 L 228.37 248.33 L 223.91 249.69 L 219.06 250.59 L 213.78 250.98 L 208.00 250.84 L 201.67 250.11 L 194.73 248.73 L 188.36 246.93 L 182.56 244.74 L 177.28 242.16 L 172.48 239.21 L 168.12 235.88 L 164.17 232.17 L 160.61 228.06 L 157.43 223.53 L 154.61 218.53 L 152.17 213.03 L 150.12 206.98 L 148.47 200.33 L 147.26 193.02 L 146.53 185.00 L 146.30 176.18 L 142.14 175.38 L 138.44 174.12 L 135.15 172.42 L 132.22 170.29 L 129.60 167.70 L 127.28 164.61 L 125.26 160.95 L 123.56 156.65 L 122.21 151.61 L 121.24 145.74 L 121.02 141.14 L 121.36 137.38 L 122.17 134.29 L 123.52 131.41 L 125.19 129.13 L 127.19 127.36 L 129.50 126.00 L 132.01 125.08 L 134.74 124.61 L 137.53 124.57 L 140.37 124.94 L 143.28 125.73 L 146.06 126.90 L 148.72 128.44 L 151.25 130.39 L 153.50 132.65 L 155.45 135.26 L 157.11 138.26 L 157.11 70.00 L 268.46 78.24 L 270.00 126.03 Z" fill="#000000" fill-rule="evenodd" node-id="98" stroke="none" target-height="180.98271" target-width="148.98434" target-x="121.01566" target-y="70"></path></clipPath><clipPath id="mask-4" node-id="23"><path d="M 149.00 56.03 L 134.72 142.40 C 126.57 174.37 106.24 186.48 73.73 178.73 C 41.22 170.98 25.08 146.80 25.30 106.18 C 10.78 104.31 2.42 94.16 0.24 75.74 C -3.03 48.11 27.55 49.52 36.11 68.26 C 36.09 50.04 36.09 27.29 36.11 0.00 L 147.46 8.24 L 149.00 56.03 Z" fill="#000000" fill-rule="evenodd" node-id="98" stroke="none" target-height="186.48152" target-width="152.02628" target-x="-3.0262794" target-y="0"></path></clipPath><clipPath id="mask-6" node-id="39"><path d="M 304.42 755.15 L 291.00 806.94 L 306.01 835.99 L 338.49 806.94 L 358.00 755.15 Z" fill="#000000" fill-rule="evenodd" node-id="105" stroke="none" target-height="80.84375" target-width="67" target-x="291" target-y="755.14526"></path></clipPath><clipPath id="mask-8" node-id="44"><path d="M 431.13 701.91 L 423.09 741.77 L 429.14 769.90 L 461.46 756.70 L 479.93 700.05 Z" fill="#000000" fill-rule="evenodd" node-id="112" stroke="none" target-height="69.848755" target-width="56.83432" target-x="423.09076" target-y="700.05237"></path></clipPath><clipPath id="mask-10" node-id="53"><path d="M 153.95 261.82 L 151.62 258.48 L 149.12 255.85 L 146.43 253.83 L 143.51 252.37 L 140.34 251.42 L 136.83 251.01 L 132.93 251.18 L 128.56 252.00 L 123.62 253.58 L 118.03 256.04 L 111.70 259.53 L 104.53 264.24 L 96.43 270.34 L 87.29 278.05 L 76.99 287.58 L 65.44 299.17 L 52.51 313.07 L 38.07 329.54 L 22.00 348.86 L 30.34 347.43 L 38.03 346.64 L 45.13 346.45 L 51.69 346.81 L 57.77 347.68 L 63.40 349.02 L 68.62 350.82 L 73.49 353.08 L 78.03 355.78 L 82.26 358.95 L 86.22 362.61 L 89.90 366.77 L 93.32 371.49 L 96.47 376.82 L 99.35 382.80 L 99.93 386.25 L 99.94 389.12 L 99.47 391.53 L 98.56 393.56 L 97.23 395.29 L 95.42 396.76 L 93.05 397.98 L 89.98 398.91 L 86.05 399.50 L 85.17 402.58 L 84.43 406.75 L 83.90 412.24 L 83.68 420.78 L 84.04 431.47 L 85.00 442.72 L 86.65 455.53 L 88.90 468.67 L 91.90 482.77 L 94.25 492.20 L 96.94 501.78 L 99.97 511.53 L 103.32 521.17 L 107.00 530.72 L 111.04 540.17 L 115.44 549.46 L 120.19 558.41 L 125.28 567.04 L 145.86 546.38 L 164.08 528.87 L 180.15 514.20 L 194.26 502.06 L 206.60 492.17 L 217.34 484.25 L 226.65 478.07 L 234.68 473.38 L 241.59 469.96 L 247.51 467.63 L 252.57 466.21 L 256.90 465.54 L 260.61 465.50 L 263.81 466.00 L 258.18 460.07 L 253.13 453.85 L 248.62 447.33 L 244.65 440.49 L 241.20 433.32 L 238.27 425.77 L 235.86 417.84 L 233.97 409.48 L 232.64 400.66 L 231.86 391.35 L 235.75 386.96 L 239.91 383.17 L 244.34 379.94 L 249.08 377.25 L 254.15 375.07 L 259.59 373.42 L 265.45 372.29 L 271.76 371.71 L 278.59 371.73 L 261.81 318.75 L 258.72 312.71 L 255.28 307.26 L 251.49 302.37 L 247.35 297.99 L 242.84 294.10 L 237.94 290.67 L 232.62 287.69 L 226.84 285.15 L 220.57 283.08 L 213.76 281.48 L 206.35 280.38 L 204.82 283.40 L 203.01 285.89 L 200.91 287.93 L 198.52 289.56 L 195.78 290.78 L 192.63 291.61 L 189.01 292.00 L 184.83 291.90 L 180.00 291.23 L 174.41 289.88 L 167.97 287.75 L 164.32 285.22 L 161.30 282.52 L 158.84 279.64 L 156.90 276.58 L 155.45 273.31 L 154.46 269.78 L 153.95 265.97 L 153.95 261.82 Z" fill="#000000" fill-rule="evenodd" node-id="119" stroke="none" target-height="316.0243" target-width="256.59155" target-x="22" target-y="251.01482"></path></clipPath><clipPath id="mask-12" node-id="69"><path d="M 33.25 348.88 L 26.16 359.57 L 20.07 369.74 L 14.91 379.42 L 10.62 388.65 L 7.13 397.45 L 4.39 405.85 L 2.35 413.89 L 0.96 421.60 L 0.19 429.01 L 0.01 436.14 L 0.39 443.03 L 1.32 449.71 L 2.79 456.19 L 4.81 462.51 L 7.37 468.69 L 10.51 474.75 L 14.23 480.71 L 18.58 486.57 L 22.79 490.10 L 27.26 493.11 L 32.00 495.64 L 37.05 497.69 L 42.44 499.26 L 48.20 500.34 L 54.39 500.91 L 61.05 500.94 L 68.22 500.39 L 75.96 499.19 L 84.33 497.30 L 93.38 494.65 L 103.17 491.15 L 113.76 486.73 L 125.20 481.29 L 137.57 474.75 L 150.93 467.00 L 165.34 457.94 L 180.87 447.45 L 197.60 435.43 L 200.90 435.32 L 204.45 434.73 L 208.28 433.60 L 212.45 431.88 L 216.99 429.47 L 221.96 426.29 L 227.40 422.22 L 230.26 421.06 L 232.58 420.60 L 234.48 420.69 L 236.07 421.25 L 237.43 422.28 L 238.62 423.85 L 239.62 426.13 L 240.40 429.20 L 240.62 431.36 L 240.47 434.67 L 240.50 435.87 L 240.88 436.82 L 241.69 437.60 L 243.54 438.55 L 245.26 438.97 L 246.77 438.78 L 248.19 437.99 L 249.60 436.46 L 251.00 433.89 L 252.36 429.93 L 252.70 432.09 L 253.37 433.59 L 254.31 434.59 L 255.55 435.21 L 257.20 435.43 L 258.77 435.19 L 260.20 434.45 L 261.54 433.13 L 262.81 431.08 L 263.98 428.06 L 264.72 430.48 L 265.62 431.94 L 266.63 432.74 L 267.81 433.03 L 269.26 432.80 L 271.16 431.87 L 273.65 429.93 L 274.24 425.15 L 274.28 420.47 L 273.79 415.88 L 272.75 411.32 L 271.16 406.79 L 268.98 402.24 L 266.17 397.67 L 262.67 393.05 L 258.42 388.36 L 259.69 388.20 L 261.18 388.58 L 262.99 389.66 L 265.24 391.71 L 268.06 395.12 L 271.56 400.33 L 275.88 407.84 L 278.16 412.54 L 279.28 414.66 L 280.47 416.30 L 281.41 417.17 L 282.49 417.74 L 283.76 418.03 L 285.07 418.00 L 286.77 417.57 L 288.98 416.62 L 289.94 415.86 L 290.59 414.85 L 290.93 413.53 L 290.95 411.34 L 290.48 408.76 L 289.68 406.19 L 288.66 403.74 L 287.51 401.47 L 286.51 399.86 L 284.78 397.10 L 282.97 393.85 L 281.07 390.51 L 278.77 386.99 L 277.05 384.75 L 274.99 382.56 L 272.59 380.40 L 269.98 378.52 L 266.84 376.78 L 263.09 375.19 L 259.22 374.00 L 254.55 373.07 L 248.97 372.45 L 243.38 372.27 L 236.74 372.53 L 228.89 373.30 L 221.73 375.24 L 215.06 377.56 L 208.86 380.26 L 203.07 383.33 L 197.69 386.77 L 192.68 390.57 L 188.03 394.76 L 183.72 399.33 L 179.73 404.32 L 176.47 406.82 L 171.27 409.99 L 165.39 413.06 L 158.17 416.37 L 150.52 419.49 L 142.17 422.49 L 133.61 425.15 L 125.00 427.36 L 119.21 428.57 L 113.68 429.45 L 108.41 430.02 L 103.12 430.24 L 98.38 430.05 L 94.13 429.47 L 90.99 428.68 L 88.27 427.62 L 85.92 426.31 L 83.90 424.74 L 82.20 422.86 L 80.89 420.63 L 79.96 417.99 L 79.44 414.85 L 79.40 411.80 L 79.83 408.18 L 80.82 403.90 L 82.50 398.83 L 84.42 394.21 L 87.04 388.88 L 90.47 382.73 L 94.81 375.70 L 91.13 370.39 L 87.23 365.74 L 83.12 361.69 L 78.79 358.20 L 74.22 355.25 L 69.40 352.80 L 64.29 350.85 L 58.87 349.40 L 53.10 348.45 L 46.93 348.02 L 40.33 348.15 L 33.25 348.88 Z" fill="#000000" fill-rule="evenodd" node-id="126" stroke="none" target-height="152.92303" target-width="290.936" target-x="0.009156227" target-y="348.02075"></path></clipPath></defs><g node-id="243"><g node-id="244"><path d="M 151.43 259.00 L 154.06 262.86 L 156.99 266.29 L 160.25 269.30 L 163.85 271.93 L 167.83 274.19 L 172.21 276.08 L 177.05 277.58 L 182.39 278.67 L 188.28 279.34 L 194.80 279.52 L 202.00 279.19 L 192.67 303.00 L 133.00 288.47 L 151.43 259.00 Z" fill="#f9a003" fill-rule="evenodd" group-id="1,2" id="路径-79" node-id="16" stroke="none" target-height="44" target-width="69" target-x="133" target-y="259"></path><g node-id="245"><g node-id="252"><path d="M 176.46 231.46 L 174.77 240.67 L 172.82 248.24 L 170.66 254.39 L 168.35 259.31 L 165.90 263.19 L 163.36 266.20 L 160.71 268.46 L 157.93 270.06 L 155.00 271.09 L 155.00 303.40 L 216.00 308.00 L 206.52 281.42 L 205.11 277.47 L 204.28 273.33 L 204.04 268.95 L 204.41 264.30 L 205.44 259.30 L 207.21 253.90 L 209.81 248.05 L 213.35 241.69 L 196.14 219.00 L 176.46 231.46 Z" fill="#ffbebe" fill-rule="evenodd" group-id="1,2,3,10" node-id="137" stroke="none" target-height="89" target-width="61" target-x="155" target-y="219"></path></g><g clip-path="url(#mask-2)" group-id="1,2,3,11" node-id="140"><path d="M 210.08 259.60 L 204.90 259.35 L 199.95 258.61 L 195.20 257.39 L 190.61 255.69 L 186.18 253.51 L 181.87 250.81 L 177.68 247.57 L 173.58 243.75 L 169.59 239.30 L 177.06 230.16 L 217.00 241.00 L 210.08 259.60 Z" fill="#ffa2a2" fill-rule="evenodd" group-id="1,2,3,11" node-id="142" stroke="none" target-height="29.435318" target-width="47.40822" target-x="169.58696" target-y="230.16118"></path></g></g><g node-id="246"><g node-id="254"><path d="M 270.00 126.03 L 255.72 212.40 L 253.75 219.05 L 251.48 224.88 L 248.94 229.97 L 246.15 234.39 L 243.11 238.20 L 239.83 241.47 L 236.30 244.22 L 232.48 246.50 L 228.37 248.33 L 223.91 249.69 L 219.06 250.59 L 213.78 250.98 L 208.00 250.84 L 201.67 250.11 L 194.73 248.73 L 188.36 246.93 L 182.56 244.74 L 177.28 242.16 L 172.48 239.21 L 168.12 235.88 L 164.17 232.17 L 160.61 228.06 L 157.43 223.53 L 154.61 218.53 L 152.17 213.03 L 150.12 206.98 L 148.47 200.33 L 147.26 193.02 L 146.53 185.00 L 146.30 176.18 L 142.14 175.38 L 138.44 174.12 L 135.15 172.42 L 132.22 170.29 L 129.60 167.70 L 127.28 164.61 L 125.26 160.95 L 123.56 156.65 L 122.21 151.61 L 121.24 145.74 L 121.02 141.14 L 121.36 137.38 L 122.17 134.29 L 123.52 131.41 L 125.19 129.13 L 127.19 127.36 L 129.50 126.00 L 132.01 125.08 L 134.74 124.61 L 137.53 124.57 L 140.37 124.94 L 143.28 125.73 L 146.06 126.90 L 148.72 128.44 L 151.25 130.39 L 153.50 132.65 L 155.45 135.26 L 157.11 138.26 L 157.11 70.00 L 268.46 78.24 L 270.00 126.03 Z" fill="#ffbebe" fill-rule="evenodd" group-id="1,2,4,12" node-id="148" stroke="none" target-height="180.98271" target-width="148.98434" target-x="121.01566" target-y="70"></path></g><g node-id="255"><g clip-path="url(#mask-4_8)" group-id="1,2,4,13" node-id="151"><path d="M 209.59 164.33 L 209.83 162.91 L 210.39 161.81 L 211.27 160.95 L 212.98 160.12 L 214.96 159.83 L 216.95 160.12 L 218.66 160.95 L 219.54 161.81 L 220.10 162.91 L 220.33 164.33 L 220.33 167.86 L 220.33 170.28 L 220.33 172.80 L 220.33 176.65 L 220.09 178.20 L 219.53 179.36 L 218.66 180.23 L 217.55 180.84 L 216.33 181.19 L 214.96 181.28 L 212.98 180.92 L 211.27 180.01 L 210.38 179.12 L 209.83 178.02 L 209.59 176.65 L 209.59 172.21 L 209.59 168.90 L 209.59 164.33 Z" fill="#3f3e3e" fill-rule="evenodd" group-id="1,2,4,13" id="路径-85" node-id="26" stroke="none" target-height="21.447556" target-width="10.738754" target-x="209.59459" target-y="159.82962"></path></g></g><g node-id="256"><g clip-path="url(#mask-4_9)" group-id="1,2,4,14" node-id="155"><path d="M 212.28 192.68 L 211.97 195.98 L 211.15 199.01 L 209.81 201.81 L 208.00 204.35 L 205.85 206.51 L 203.30 208.31 L 200.50 209.64 L 197.47 210.47 L 194.16 210.78 L 190.85 210.47 L 187.82 209.64 L 185.01 208.31 L 182.47 206.51 L 180.31 204.35 L 178.51 201.81 L 177.17 199.01 L 176.34 195.98 L 176.04 192.68 L 176.34 189.37 L 177.17 186.35 L 178.51 183.54 L 180.31 181.00 L 182.47 178.85 L 185.01 177.05 L 187.82 175.71 L 190.85 174.89 L 194.16 174.58 L 197.47 174.89 L 200.50 175.71 L 203.30 177.05 L 205.85 178.85 L 208.00 181.00 L 209.81 183.54 L 211.15 186.35 L 211.97 189.37 L 212.28 192.68 Z" fill="#ffa5a2" fill-rule="evenodd" group-id="1,2,4,14" id="椭圆形" node-id="27" stroke="none" target-height="36.19998" target-width="36.24324" target-x="176.03604" target-y="174.57779"></path></g></g><g node-id="257"><g clip-path="url(#mask-4_10)" group-id="1,2,4,15" node-id="159"><path d="M 275.37 196.70 L 275.08 199.76 L 274.32 202.56 L 273.08 205.16 L 271.41 207.51 L 269.41 209.51 L 267.06 211.17 L 264.46 212.41 L 261.65 213.17 L 258.59 213.46 L 255.53 213.17 L 252.72 212.41 L 250.12 211.17 L 247.77 209.51 L 245.77 207.51 L 244.10 205.16 L 242.86 202.56 L 242.10 199.76 L 241.81 196.70 L 242.10 193.64 L 242.86 190.84 L 244.10 188.24 L 245.77 185.89 L 247.77 183.89 L 250.12 182.23 L 252.72 180.99 L 255.53 180.23 L 258.59 179.94 L 261.65 180.23 L 264.46 180.99 L 267.06 182.23 L 269.41 183.89 L 271.41 185.89 L 273.08 188.24 L 274.32 190.84 L 275.08 193.64 L 275.37 196.70 Z" fill="#ffa5a2" fill-rule="evenodd" group-id="1,2,4,15" id="椭圆形备份-17" node-id="28" stroke="none" target-height="33.518524" target-width="33.558563" target-x="241.81082" target-y="179.94073"></path></g></g><g node-id="258"><g clip-path="url(#mask-4_11)" group-id="1,2,4,16" node-id="163"><path d="M 240.47 164.33 L 240.71 162.91 L 241.26 161.81 L 242.15 160.95 L 243.85 160.12 L 245.84 159.83 L 247.83 160.12 L 249.53 160.95 L 250.41 161.81 L 250.97 162.91 L 251.21 164.33 L 251.21 167.86 L 251.21 170.28 L 251.21 172.80 L 251.21 176.65 L 250.96 178.20 L 250.40 179.36 L 249.53 180.23 L 248.42 180.84 L 247.20 181.19 L 245.84 181.28 L 243.85 180.92 L 242.15 180.01 L 241.26 179.12 L 240.70 178.02 L 240.47 176.65 L 240.47 172.21 L 240.47 168.90 L 240.47 164.33 Z" fill="#3f3e3e" fill-rule="evenodd" group-id="1,2,4,16" id="路径-85备份" node-id="29" stroke="none" target-height="21.447556" target-width="10.73877" target-x="240.46844" target-y="159.82962"></path></g></g><g node-id="259"><g clip-path="url(#mask-4_12)" group-id="1,2,4,17" node-id="167"><path d="M 269.90 139.79 L 265.27 138.16 L 261.72 136.39 L 259.07 134.53 L 257.15 132.57 L 255.85 130.53 L 255.08 128.35 L 254.82 125.98 L 252.65 128.67 L 250.26 130.83 L 247.64 132.51 L 244.73 133.75 L 241.51 134.54 L 237.90 134.86 L 233.85 134.66 L 229.27 133.87 L 224.08 132.39 L 218.20 130.13 L 211.54 126.95 L 210.31 130.78 L 208.70 134.03 L 206.73 136.78 L 204.40 139.09 L 201.68 140.99 L 198.51 142.50 L 194.81 143.60 L 190.51 144.26 L 185.50 144.41 L 179.67 143.98 L 172.91 142.86 L 171.99 146.83 L 170.77 150.06 L 169.31 152.64 L 167.61 154.68 L 165.67 156.26 L 163.46 157.42 L 160.94 158.17 L 158.03 158.49 L 155.42 152.69 L 152.80 148.01 L 150.18 144.31 L 147.57 141.44 L 144.96 139.29 L 142.33 137.75 L 139.66 136.76 L 136.90 136.28 L 134.02 136.30 L 130.96 136.86 L 127.67 138.00 L 129.39 124.23 L 225.85 107.54 L 269.90 114.68 L 272.68 120.63 L 269.90 139.79 Z" fill="#ffa2a2" fill-rule="evenodd" group-id="1,2,4,17" id="路径-56" node-id="30" stroke="none" target-height="50.94815" target-width="145.01137" target-x="127.673325" target-y="107.54074"></path></g></g><g node-id="260"><g clip-path="url(#mask-4_13)" group-id="1,2,4,18" node-id="171"><path d="M 147.85 152.28 L 146.20 150.54 L 144.47 149.15 L 142.53 148.18 L 140.29 147.77 L 138.74 147.85 L 136.91 148.28 L 134.74 149.16 L 133.27 150.12 L 132.11 151.40 L 131.22 153.07 L 130.63 155.22 L 130.40 157.96 L 130.61 161.46 L 131.38 165.85 L 132.38 160.00 L 133.27 156.57 L 134.04 154.78 L 134.15 154.78 L 134.24 156.01 L 134.54 160.04 L 135.01 162.51 L 135.86 165.05 L 136.68 166.63 L 137.76 168.01 L 139.12 169.21 L 138.08 167.05 L 137.41 164.24 L 137.13 161.24 L 137.12 158.23 L 137.32 155.32 L 137.62 153.11 L 138.07 151.26 L 138.33 150.81 L 140.28 150.40 L 142.63 150.60 L 145.08 151.25 L 147.85 152.28 Z" fill="#ffa2a2" fill-rule="evenodd" group-id="1,2,4,18" id="路径-297" node-id="31" stroke="none" target-height="21.446945" target-width="17.44931" target-x="130.39754" target-y="147.76787"></path></g></g><g clip-path="url(#mask-4_14)" group-id="1,2,4,19" node-id="175"><path d="M 209.12 218.88 L 221.44 219.28 L 230.49 219.24 L 236.91 218.88 L 238.84 218.90 L 239.88 219.35 L 240.39 220.12 L 240.41 221.38 L 239.69 223.47 L 238.33 225.89 L 236.62 227.88 L 234.55 229.51 L 232.17 230.68 L 229.01 231.60 L 224.85 232.18 L 222.04 232.15 L 219.48 231.73 L 217.15 230.95 L 213.92 229.30 L 211.33 227.44 L 209.13 225.42 L 207.79 223.92 L 207.10 222.81 L 206.91 221.83 L 207.13 220.89 L 207.80 219.93 L 209.12 218.88 Z" fill="#ff8989" fill-rule="evenodd" group-id="1,2,4,19" id="路径-344" node-id="32" stroke="none" target-height="13.292938" target-width="33.499176" target-x="206.91016" target-y="218.88391"></path></g></g><path d="M 146.45 136.62 L 148.21 137.94 L 149.91 139.66 L 151.55 141.84 L 152.93 144.20 L 154.14 146.82 L 155.17 149.73 L 155.92 152.71 L 156.38 155.78 L 156.55 158.95 L 159.83 157.17 L 162.46 155.14 L 164.52 152.89 L 166.07 150.37 L 167.15 147.55 L 167.74 144.37 L 167.82 140.76 L 167.31 136.62 L 174.65 138.62 L 180.94 139.82 L 186.31 140.33 L 190.88 140.26 L 194.78 139.70 L 198.09 138.71 L 200.90 137.33 L 203.30 135.57 L 205.33 133.42 L 207.01 130.83 L 208.35 127.75 L 209.33 124.07 L 217.15 126.91 L 223.99 128.80 L 229.96 129.87 L 235.18 130.23 L 239.74 129.99 L 243.74 129.21 L 247.27 127.94 L 250.38 126.19 L 253.15 123.96 L 255.59 121.21 L 256.38 124.65 L 257.52 127.36 L 258.95 129.46 L 260.67 131.05 L 262.72 132.21 L 265.15 132.93 L 268.07 133.18 L 265.67 155.49 L 272.06 154.47 L 277.51 153.11 L 282.15 151.44 L 286.07 149.50 L 289.36 147.32 L 292.10 144.90 L 294.34 142.23 L 296.12 139.30 L 297.47 136.07 L 298.38 132.49 L 298.83 128.51 L 298.78 124.07 L 301.48 123.75 L 304.03 123.05 L 306.46 121.99 L 308.79 120.55 L 311.59 118.19 L 314.11 115.35 L 316.34 111.98 L 318.13 108.36 L 319.52 104.45 L 320.48 100.24 L 320.96 95.95 L 320.91 91.60 L 320.32 87.17 L 319.51 83.93 L 318.35 80.78 L 316.83 77.68 L 314.92 74.64 L 312.72 71.88 L 310.09 69.27 L 306.99 66.82 L 303.36 64.51 L 302.90 63.10 L 302.43 60.13 L 301.37 52.32 L 300.49 47.70 L 299.17 42.64 L 298.03 39.29 L 296.59 35.97 L 294.83 32.67 L 292.77 29.58 L 290.29 26.69 L 287.36 23.99 L 284.11 21.71 L 280.26 19.76 L 275.74 18.17 L 272.30 17.38 L 268.39 16.86 L 263.97 16.65 L 258.97 16.79 L 254.22 17.26 L 248.86 18.16 L 242.83 19.52 L 236.06 21.42 L 229.62 15.90 L 223.47 11.34 L 217.59 7.66 L 211.94 4.78 L 206.51 2.63 L 201.26 1.14 L 196.15 0.28 L 191.16 0.00 L 186.24 0.30 L 181.37 1.17 L 176.52 2.62 L 171.64 4.69 L 166.73 7.42 L 161.75 10.86 L 156.69 15.08 L 151.53 20.17 L 142.29 21.19 L 134.06 22.64 L 126.75 24.47 L 120.27 26.64 L 114.55 29.12 L 109.51 31.89 L 105.10 34.94 L 101.24 38.26 L 97.91 41.86 L 95.05 45.75 L 92.66 49.96 L 90.72 54.51 L 89.24 59.46 L 88.22 64.84 L 87.70 70.71 L 87.72 77.11 L 88.33 84.12 L 89.58 91.80 L 88.31 95.86 L 87.62 99.79 L 87.48 103.63 L 87.87 107.40 L 88.80 111.15 L 90.30 114.91 L 87.47 120.33 L 85.56 125.14 L 84.45 129.39 L 84.01 133.19 L 84.17 136.60 L 84.87 139.69 L 86.10 142.54 L 87.87 145.19 L 90.25 147.66 L 93.32 149.98 L 92.41 155.55 L 92.09 160.58 L 92.31 165.13 L 93.01 169.26 L 94.17 173.03 L 95.77 176.49 L 97.83 179.66 L 100.35 182.59 L 103.40 185.29 L 107.01 187.77 L 111.26 190.01 L 116.23 192.00 L 122.02 193.71 L 125.14 198.10 L 128.28 201.72 L 131.46 204.65 L 134.67 206.97 L 137.93 208.73 L 141.26 209.97 L 144.70 210.73 L 148.27 211.00 L 152.02 210.78 L 149.99 203.38 L 148.49 196.24 L 147.50 189.34 L 146.99 182.65 L 146.96 176.15 L 141.30 173.84 L 136.64 171.36 L 132.85 168.75 L 129.81 166.01 L 127.43 163.13 L 125.65 160.11 L 124.41 156.90 L 123.69 153.48 L 123.51 149.78 L 123.91 145.74 L 125.39 142.22 L 127.00 139.58 L 128.72 137.65 L 130.77 136.07 L 132.83 135.00 L 134.93 134.40 L 137.13 134.15 L 139.23 134.19 L 141.27 134.54 L 144.16 135.45 L 146.45 136.62 Z" fill="#6f3ab9" fill-rule="evenodd" group-id="1,2" id="路径-57" node-id="33" stroke="none" target-height="210.99908" target-width="236.94484" target-x="84.0139" target-y="0.00011920929"></path><path d="M 264.25 464.21 L 278.56 454.61 L 292.28 446.07 L 305.43 438.52 L 318.04 431.92 L 330.14 426.21 L 341.75 421.33 L 352.90 417.25 L 363.62 413.90 L 373.93 411.26 L 383.86 409.28 L 393.44 407.93 L 402.69 407.18 L 411.64 407.01 L 420.31 407.40 L 428.72 408.33 L 436.89 409.80 L 444.86 411.80 L 452.64 414.32 L 460.24 417.38 L 467.68 420.98 L 474.99 425.14 L 482.17 429.88 L 488.20 434.50 L 493.82 439.53 L 499.02 444.97 L 503.84 450.85 L 508.28 457.19 L 512.34 464.02 L 516.02 471.36 L 519.31 479.26 L 522.21 487.76 L 524.69 496.90 L 526.73 506.72 L 528.30 517.27 L 529.39 528.61 L 529.94 540.79 L 529.92 553.86 L 529.28 567.89 L 527.99 582.92 L 525.99 599.03 L 523.23 616.28 L 519.66 634.74 L 515.21 654.46 L 509.82 675.52 L 503.44 698.00 L 420.01 687.71 L 425.09 662.62 L 429.04 640.36 L 431.97 620.72 L 433.99 603.46 L 435.22 588.37 L 435.74 575.25 L 435.65 563.90 L 435.04 554.16 L 433.99 545.83 L 432.55 538.77 L 430.80 532.82 L 428.79 527.84 L 426.54 523.72 L 424.09 520.33 L 421.44 517.59 L 418.59 515.41 L 415.50 513.76 L 412.15 512.61 L 408.48 511.95 L 404.43 511.81 L 399.93 512.25 L 394.91 513.33 L 389.29 515.17 L 382.98 517.86 L 364.82 527.39 L 347.77 535.71 L 331.78 542.90 L 316.79 549.03 L 302.74 554.18 L 289.58 558.42 L 277.26 561.81 L 265.73 564.42 L 254.93 566.29 L 244.82 567.49 L 235.35 568.06 L 226.48 568.05 L 218.15 567.49 L 210.34 566.41 L 203.00 564.85 L 196.08 562.80 L 189.57 560.30 L 183.43 557.35 L 177.63 553.94 L 172.15 550.07 L 166.96 545.72 L 162.06 540.87 L 157.44 535.50 L 153.08 529.57 L 149.00 523.04 L 161.55 511.74 L 173.23 501.96 L 184.10 493.56 L 194.20 486.43 L 203.60 480.45 L 212.34 475.53 L 220.47 471.56 L 228.04 468.47 L 235.09 466.15 L 241.67 464.55 L 247.84 463.61 L 253.63 463.26 L 259.09 463.47 L 264.25 464.21 Z" fill="#333232" fill-rule="evenodd" group-id="1,2" id="路径-62" node-id="34" stroke="none" target-height="290.98843" target-width="380.93573" target-x="149" target-y="407.01157"></path><path d="M 127.00 568.58 L 131.78 576.63 L 136.74 583.88 L 141.88 590.39 L 147.19 596.21 L 152.68 601.38 L 158.35 605.93 L 164.21 609.91 L 170.28 613.34 L 176.57 616.23 L 183.12 618.59 L 189.94 620.43 L 197.06 621.74 L 204.52 622.51 L 212.34 622.72 L 220.57 622.34 L 229.22 621.34 L 238.36 619.68 L 248.00 617.31 L 258.19 614.19 L 268.97 610.24 L 280.39 605.42 L 292.47 599.65 L 305.26 592.87 L 310.48 590.84 L 314.84 589.67 L 318.48 589.22 L 321.52 589.34 L 324.09 589.96 L 326.28 591.02 L 328.15 592.53 L 329.75 594.56 L 331.08 597.20 L 332.11 600.58 L 332.77 604.86 L 332.96 610.24 L 332.58 616.91 L 331.47 625.10 L 329.50 635.06 L 326.48 647.05 L 319.09 673.11 L 312.28 695.50 L 306.01 714.58 L 300.25 730.68 L 294.97 744.14 L 290.14 755.24 L 377.66 775.00 L 387.65 750.47 L 396.27 727.70 L 403.63 706.60 L 409.81 687.08 L 414.90 669.04 L 418.99 652.39 L 422.15 637.05 L 424.47 622.93 L 426.00 609.94 L 426.82 598.01 L 426.98 587.06 L 426.55 577.03 L 425.57 567.83 L 424.09 559.41 L 422.14 551.70 L 419.75 544.64 L 416.94 538.19 L 413.74 532.28 L 410.14 526.88 L 406.14 521.95 L 401.73 517.46 L 396.89 513.39 L 391.60 509.72 L 385.82 506.46 L 379.51 503.59 L 372.63 501.13 L 365.12 499.10 L 356.93 497.52 L 347.99 496.44 L 338.25 495.88 L 300.80 495.14 L 268.40 495.03 L 240.57 495.48 L 216.85 496.39 L 196.82 497.70 L 180.06 499.33 L 166.19 501.20 L 154.85 503.26 L 145.71 505.46 L 138.45 507.73 L 127.00 568.58 Z" fill="#333232" fill-rule="evenodd" group-id="1,2" id="路径-61" node-id="35" stroke="none" target-height="279.96945" target-width="299.98325" target-x="127" target-y="495.03055"></path><path d="M 285.28 763.05 L 283.16 764.26 L 281.86 765.50 L 281.18 766.80 L 281.01 768.21 L 281.36 769.83 L 282.38 771.76 L 283.70 772.83 L 287.67 774.80 L 292.49 776.74 L 299.16 779.11 L 306.36 781.42 L 314.56 783.83 L 323.00 786.07 L 331.59 788.11 L 340.14 789.85 L 347.96 791.10 L 355.46 791.87 L 361.38 791.96 L 365.15 791.56 L 367.78 790.82 L 369.56 789.82 L 370.50 788.78 L 370.95 787.52 L 370.90 785.92 L 370.21 783.84 L 368.64 781.16 L 366.50 778.61 L 363.70 776.17 L 360.14 773.83 L 355.69 771.61 L 350.20 769.54 L 343.51 767.65 L 335.43 766.01 L 325.79 764.65 L 314.36 763.66 L 300.94 763.10 L 285.28 763.05 Z" fill="#171616" fill-rule="evenodd" group-id="1,2" id="路径-73" node-id="36" stroke="none" target-height="28.910828" target-width="89.94229" target-x="281.0054" target-y="763.0466"></path><path d="M 409.92 707.65 L 409.16 708.94 L 409.01 710.10 L 409.42 711.26 L 410.53 712.51 L 412.65 713.92 L 416.26 715.50 L 421.90 717.23 L 430.24 719.11 L 442.61 721.47 L 456.62 723.91 L 470.57 725.91 L 477.15 726.60 L 482.74 726.95 L 487.91 726.93 L 491.45 726.51 L 493.50 725.85 L 494.56 725.04 L 494.99 724.07 L 494.84 722.98 L 493.90 721.41 L 491.66 719.11 L 488.75 716.92 L 485.08 714.86 L 480.53 712.94 L 474.96 711.20 L 468.19 709.68 L 460.06 708.44 L 450.37 707.55 L 438.93 707.06 L 425.52 707.07 L 409.92 707.65 Z" fill="#171616" fill-rule="evenodd" group-id="1,2" id="路径-74" node-id="37" stroke="none" target-height="19.888184" target-width="85.97427" target-x="409.0148" target-y="707.0625"></path><path d="M 304.42 755.15 L 291.00 806.94 L 306.01 835.99 L 338.49 806.94 L 358.00 755.15 Z" fill="#ffbdbd" fill-rule="evenodd" group-id="1,2,5,20" node-id="187" stroke="none" target-height="80.84375" target-width="67" target-x="291" target-y="755.14526"></path><g clip-path="url(#mask-6)" group-id="1,2,5,21" node-id="190"><path d="M 297.20 776.70 L 306.98 776.93 L 315.63 777.56 L 323.24 778.54 L 329.92 779.84 L 335.75 781.42 L 340.83 783.23 L 345.22 785.26 L 349.02 787.48 L 355.03 768.66 L 327.53 748.42 L 297.20 755.15 L 297.20 776.70 Z" fill="#fe9595" fill-rule="evenodd" group-id="1,2,5,21" node-id="192" stroke="none" target-height="39.063538" target-width="57.829742" target-x="297.19595" target-y="748.41925"></path></g><path d="M 431.13 701.91 L 423.09 741.77 L 429.14 769.90 L 461.46 756.70 L 479.93 700.05 Z" fill="#ffbdbd" fill-rule="evenodd" group-id="1,2,6,22" node-id="198" stroke="none" target-height="69.848755" target-width="56.83432" target-x="423.09076" target-y="700.05237"></path><g clip-path="url(#mask-8)" group-id="1,2,6,23" node-id="201"><path d="M 425.80 716.03 L 435.36 715.91 L 443.79 716.30 L 451.20 717.13 L 457.69 718.36 L 463.37 719.94 L 468.31 721.82 L 472.60 723.98 L 476.31 726.41 L 482.58 706.53 L 442.53 698.83 L 421.65 698.83 L 425.80 716.03 Z" fill="#fe9595" fill-rule="evenodd" group-id="1,2,6,23" node-id="203" stroke="none" target-height="27.577087" target-width="60.935394" target-x="421.6468" target-y="698.8333"></path></g><path d="M 301.58 724.00 L 292.28 742.42 L 285.23 755.42 L 280.00 764.16 L 293.92 764.53 L 306.17 765.34 L 316.91 766.54 L 326.27 768.07 L 334.38 769.89 L 341.38 771.94 L 347.38 774.21 L 352.49 776.64 L 356.81 779.23 L 360.43 781.96 L 363.42 784.82 L 365.86 787.83 L 367.79 790.98 L 368.72 790.85 L 369.95 790.04 L 371.66 788.10 L 374.01 784.41 L 377.21 778.20 L 381.45 768.56 L 387.00 754.42 L 383.03 749.99 L 378.63 745.88 L 373.75 742.10 L 368.37 738.64 L 362.45 735.50 L 355.95 732.69 L 348.81 730.23 L 340.98 728.13 L 332.41 726.42 L 323.03 725.14 L 312.78 724.32 L 301.58 724.00 Z" fill="#7e7c7c" fill-rule="evenodd" group-id="1,2" id="路径-63" node-id="48" stroke="none" target-height="66.98285" target-width="107" target-x="280" target-y="724"></path><path d="M 423.18 669.99 L 420.24 679.39 L 416.76 689.29 L 412.69 699.72 L 408.00 710.71 L 413.06 709.62 L 418.70 708.82 L 424.99 708.34 L 431.28 708.21 L 437.81 708.38 L 444.58 708.88 L 451.33 709.67 L 457.93 710.76 L 464.40 712.13 L 470.79 713.82 L 476.66 715.75 L 482.04 717.90 L 487.24 720.46 L 491.56 723.16 L 495.12 726.00 L 499.56 714.84 L 503.34 703.87 L 506.48 693.07 L 509.00 682.42 L 502.44 678.92 L 495.53 675.89 L 488.21 673.34 L 480.48 671.26 L 472.29 669.67 L 463.61 668.60 L 454.40 668.06 L 444.62 668.09 L 434.23 668.72 L 423.18 669.99 Z" fill="#7e7c7c" fill-rule="evenodd" group-id="1,2" id="路径-64" node-id="49" stroke="none" target-height="57.94049" target-width="101" target-x="408" target-y="668.0595"></path><path d="M 277.78 366.00 L 279.59 372.38 L 281.78 378.13 L 284.34 383.31 L 287.24 387.97 L 290.48 392.15 L 294.08 395.89 L 298.05 399.21 L 302.41 402.13 L 307.20 404.65 L 312.46 406.78 L 319.84 409.11 L 326.60 410.79 L 332.79 411.87 L 338.47 412.40 L 343.68 412.44 L 348.48 412.04 L 352.91 411.21 L 357.00 409.98 L 339.65 425.09 L 329.95 428.77 L 320.95 431.62 L 312.59 433.71 L 304.82 435.09 L 297.59 435.83 L 290.85 435.98 L 284.56 435.59 L 278.68 434.67 L 273.15 433.26 L 267.96 431.36 L 263.05 428.99 L 258.41 426.12 L 254.01 422.74 L 249.84 418.82 L 245.88 414.33 L 242.14 409.21 L 238.62 403.42 L 235.33 396.88 L 232.28 389.53 L 229.49 381.30 L 227.00 372.11 L 246.03 369.08 L 260.26 367.22 L 270.57 366.27 L 277.78 366.00 Z" fill="#fd9b9b" fill-rule="evenodd" group-id="1,2" id="路径-75" node-id="50" stroke="none" target-height="69.98474" target-width="130" target-x="227" target-y="366"></path><path d="M 27.12 343.00 L 23.98 346.25 L 21.71 349.31 L 20.19 352.21 L 19.31 355.00 L 19.00 357.73 L 19.24 360.45 L 20.04 363.21 L 21.47 366.07 L 23.62 369.06 L 26.62 372.23 L 30.64 375.59 L 37.28 380.41 L 44.59 385.27 L 52.20 389.77 L 60.00 393.71 L 65.34 395.97 L 70.56 397.74 L 75.67 399.05 L 79.58 399.71 L 83.33 399.98 L 86.92 399.89 L 90.40 399.44 L 93.78 398.57 L 96.98 397.22 L 100.05 395.38 L 103.00 393.01 L 102.77 387.25 L 102.01 381.98 L 100.75 377.15 L 98.99 372.69 L 96.76 368.57 L 94.03 364.76 L 90.77 361.22 L 86.95 357.95 L 82.51 354.94 L 77.37 352.20 L 71.47 349.74 L 64.71 347.60 L 57.01 345.80 L 48.25 344.40 L 38.33 343.45 L 27.12 343.00 Z" fill="#f9a003" fill-rule="evenodd" group-id="1,2" id="路径-76" node-id="51" stroke="none" target-height="56.984406" target-width="83.99562" target-x="19.001186" target-y="343"></path><path d="M 153.95 261.82 L 151.62 258.48 L 149.12 255.85 L 146.43 253.83 L 143.51 252.37 L 140.34 251.42 L 136.83 251.01 L 132.93 251.18 L 128.56 252.00 L 123.62 253.58 L 118.03 256.04 L 111.70 259.53 L 104.53 264.24 L 96.43 270.34 L 87.29 278.05 L 76.99 287.58 L 65.44 299.17 L 52.51 313.07 L 38.07 329.54 L 22.00 348.86 L 30.34 347.43 L 38.03 346.64 L 45.13 346.45 L 51.69 346.81 L 57.77 347.68 L 63.40 349.02 L 68.62 350.82 L 73.49 353.08 L 78.03 355.78 L 82.26 358.95 L 86.22 362.61 L 89.90 366.77 L 93.32 371.49 L 96.47 376.82 L 99.35 382.80 L 99.93 386.25 L 99.94 389.12 L 99.47 391.53 L 98.56 393.56 L 97.23 395.29 L 95.42 396.76 L 93.05 397.98 L 89.98 398.91 L 86.05 399.50 L 85.17 402.58 L 84.43 406.75 L 83.90 412.24 L 83.68 420.78 L 84.04 431.47 L 85.00 442.72 L 86.65 455.53 L 88.90 468.67 L 91.90 482.77 L 94.25 492.20 L 96.94 501.78 L 99.97 511.53 L 103.32 521.17 L 107.00 530.72 L 111.04 540.17 L 115.44 549.46 L 120.19 558.41 L 125.28 567.04 L 145.86 546.38 L 164.08 528.87 L 180.15 514.20 L 194.26 502.06 L 206.60 492.17 L 217.34 484.25 L 226.65 478.07 L 234.68 473.38 L 241.59 469.96 L 247.51 467.63 L 252.57 466.21 L 256.90 465.54 L 260.61 465.50 L 263.81 466.00 L 258.18 460.07 L 253.13 453.85 L 248.62 447.33 L 244.65 440.49 L 241.20 433.32 L 238.27 425.77 L 235.86 417.84 L 233.97 409.48 L 232.64 400.66 L 231.86 391.35 L 235.75 386.96 L 239.91 383.17 L 244.34 379.94 L 249.08 377.25 L 254.15 375.07 L 259.59 373.42 L 265.45 372.29 L 271.76 371.71 L 278.59 371.73 L 261.81 318.75 L 258.72 312.71 L 255.28 307.26 L 251.49 302.37 L 247.35 297.99 L 242.84 294.10 L 237.94 290.67 L 232.62 287.69 L 226.84 285.15 L 220.57 283.08 L 213.76 281.48 L 206.35 280.38 L 204.82 283.40 L 203.01 285.89 L 200.91 287.93 L 198.52 289.56 L 195.78 290.78 L 192.63 291.61 L 189.01 292.00 L 184.83 291.90 L 180.00 291.23 L 174.41 289.88 L 167.97 287.75 L 164.32 285.22 L 161.30 282.52 L 158.84 279.64 L 156.90 276.58 L 155.45 273.31 L 154.46 269.78 L 153.95 265.97 L 153.95 261.82 Z" fill="#f9d168" fill-rule="evenodd" group-id="1,2,7,24" node-id="213" stroke="none" target-height="316.0243" target-width="256.59155" target-x="22" target-y="251.01482"></path><g clip-path="url(#mask-10)" group-id="1,2,7,25" node-id="216"><path d="M 98.26 394.21 L 135.89 334.05 L 123.52 358.55 L 114.39 375.55 L 107.85 386.73 L 103.30 393.57 L 100.25 397.33 L 98.74 398.50 L 96.73 399.39 L 94.10 399.96 L 89.90 400.20 L 84.93 399.83 L 79.86 398.97 L 74.71 397.67 L 69.74 396.02 L 65.40 394.19 L 61.52 392.08 L 58.95 390.13 L 57.68 388.62 L 57.20 387.35 L 57.31 386.19 L 57.98 385.20 L 59.52 384.17 L 62.45 383.12 L 68.04 381.92 L 71.95 381.59 L 74.59 381.86 L 76.32 382.52 L 77.40 383.50 L 78.00 384.81 L 78.10 386.61 L 77.55 389.11 L 76.05 392.59 L 98.26 394.21 Z" fill="#f9b703" fill-rule="evenodd" group-id="1,2,7,25" node-id="218" stroke="none" target-height="66.1496" target-width="78.68839" target-x="57.19947" target-y="334.04944"></path></g><path d="M 142.42 461.19 L 350.42 408.56 L 501.46 403.32 L 501.46 411.42 L 324.23 465.64 L 142.42 467.57 Z" fill="#4d4b4b" fill-rule="evenodd" group-id="1,2,8" id="路径-68" node-id="58" stroke="none" target-height="64.248566" target-width="359.03674" target-x="142.41911" target-y="403.3237"></path><path d="M 326.75 451.87 L 214.79 451.87 L 359.54 420.46 Z" fill="#585858" fill-rule="evenodd" group-id="1,2,8" id="路径-70" node-id="59" stroke="none" target-height="31.4104" target-width="144.75" target-x="214.79413" target-y="420.45667"></path><path d="M 526.47 234.11 L 525.32 230.85 L 523.88 228.21 L 522.16 226.10 L 520.17 224.46 L 517.86 223.23 L 515.17 222.41 L 512.04 222.04 L 508.36 222.16 L 504.03 222.89 L 493.37 225.57 L 476.41 230.13 L 455.18 235.99 L 431.71 242.55 L 408.02 249.22 L 386.13 255.41 L 368.08 260.52 L 355.89 263.98 L 351.42 265.50 L 347.78 267.20 L 344.83 269.05 L 342.15 271.26 L 339.96 273.59 L 338.23 276.05 L 336.80 278.71 L 335.65 281.46 L 334.77 284.32 L 333.81 288.71 L 333.12 293.18 L 331.96 301.96 L 330.33 314.28 L 325.40 356.45 L 314.13 457.58 L 324.39 457.57 L 329.44 457.56 L 526.47 234.11 Z" fill="#2b2b2b" fill-rule="evenodd" group-id="1,2,8" id="路径-66" node-id="60" stroke="none" target-height="235.5412" target-width="212.34079" target-x="314.13235" target-y="222.03683"></path><path d="M 354.62 268.86 L 363.05 266.32 L 378.44 261.86 L 398.75 256.06 L 421.96 249.50 L 446.02 242.75 L 468.88 236.39 L 488.52 231.00 L 502.89 227.16 L 509.95 225.44 L 513.05 225.04 L 516.07 224.99 L 518.04 225.21 L 519.86 225.70 L 521.55 226.46 L 523.04 227.52 L 524.35 229.00 L 525.49 230.96 L 526.26 233.10 L 526.79 235.92 L 527.00 239.57 L 526.57 247.25 L 524.44 269.38 L 519.04 317.78 L 508.26 407.85 L 322.65 457.58 L 334.49 338.68 L 337.72 308.35 L 339.47 295.36 L 340.66 289.15 L 342.18 283.59 L 343.51 280.06 L 345.08 276.99 L 346.89 274.32 L 349.07 272.01 L 351.63 270.20 L 354.62 268.86 Z" fill="#585858" fill-rule="evenodd" group-id="1,2,8" id="路径-65" node-id="61" stroke="none" target-height="232.58905" target-width="204.35294" target-x="322.64706" target-y="224.98898"></path><path d="M 141.00 458.96 L 322.65 456.15 L 322.65 469.00 L 141.00 469.00 Z" fill="#848282" fill-rule="evenodd" group-id="1,2,8" id="路径-67" node-id="62" stroke="none" target-height="12.849731" target-width="181.64706" target-x="141" target-y="456.15027"></path><path d="M 292.14 463.29 L 306.32 463.29 L 306.83 463.50 L 307.04 464.00 L 307.04 464.00 L 306.83 464.51 L 306.32 464.72 L 292.14 464.72 L 291.64 464.51 L 291.43 464.00 L 291.43 464.00 L 291.64 463.50 L 292.14 463.29 Z" fill="#2b2b2b" fill-rule="evenodd" group-id="1,2,8" id="矩形" node-id="63" stroke="none" target-height="1.4277649" target-width="15.610291" target-x="291.42645" target-y="463.289"></path><path d="M 266.60 463.29 L 280.78 463.29 L 281.28 463.50 L 281.49 464.00 L 281.49 464.00 L 281.28 464.51 L 280.78 464.72 L 266.60 464.72 L 266.09 464.51 L 265.88 464.00 L 265.88 464.00 L 266.09 463.50 L 266.60 463.29 Z" fill="#2b2b2b" fill-rule="evenodd" group-id="1,2,8" id="矩形备份-5" node-id="64" stroke="none" target-height="1.4277649" target-width="15.610291" target-x="265.88235" target-y="463.289"></path><path d="M 322.65 456.29 L 508.55 404.75 L 507.49 415.73 L 322.65 469.00 Z" fill="#4d4b4b" fill-rule="evenodd" group-id="1,2,8" id="路径-69" node-id="65" stroke="none" target-height="64.248535" target-width="185.90442" target-x="322.64706" target-y="404.75146"></path><path d="M 444.69 341.93 L 444.41 344.79 L 443.67 347.42 L 442.46 349.86 L 440.85 352.06 L 438.91 353.93 L 436.61 355.49 L 434.08 356.65 L 431.35 357.37 L 428.37 357.64 L 425.39 357.37 L 422.66 356.65 L 420.13 355.49 L 417.84 353.93 L 415.90 352.06 L 414.28 349.86 L 413.07 347.42 L 412.33 344.79 L 412.05 341.93 L 412.33 339.07 L 413.07 336.44 L 414.28 334.00 L 415.90 331.81 L 417.84 329.94 L 420.13 328.37 L 422.66 327.21 L 425.39 326.49 L 428.37 326.23 L 431.35 326.49 L 434.08 327.21 L 436.61 328.37 L 438.90 329.94 L 440.85 331.81 L 442.46 334.00 L 443.67 336.44 L 444.41 339.07 L 444.69 341.93 Z" fill="#404040" fill-rule="evenodd" group-id="1,2,8" id="椭圆形" node-id="66" stroke="none" target-height="31.4104" target-width="32.63968" target-x="412.05148" target-y="326.22543"></path><path d="M 439.54 319.68 L 441.80 320.77 L 442.28 321.13 L 442.57 321.62 L 442.65 322.19 L 442.51 322.77 L 442.45 322.88 L 436.18 333.60 L 435.81 334.03 L 435.32 334.28 L 434.79 334.34 L 434.24 334.20 L 431.97 333.11 L 431.49 332.75 L 431.20 332.26 L 431.12 331.69 L 431.26 331.11 L 431.32 331.00 L 437.59 320.28 L 437.97 319.85 L 438.45 319.60 L 438.99 319.54 L 439.54 319.68 Z" fill="#404040" fill-rule="evenodd" group-id="1,2,8" id="矩形" node-id="67" stroke="none" target-height="14.800964" target-width="11.535187" target-x="431.11844" target-y="319.53882"></path><path d="M 33.25 348.88 L 26.16 359.57 L 20.07 369.74 L 14.91 379.42 L 10.62 388.65 L 7.13 397.45 L 4.39 405.85 L 2.35 413.89 L 0.96 421.60 L 0.19 429.01 L 0.01 436.14 L 0.39 443.03 L 1.32 449.71 L 2.79 456.19 L 4.81 462.51 L 7.37 468.69 L 10.51 474.75 L 14.23 480.71 L 18.58 486.57 L 22.79 490.10 L 27.26 493.11 L 32.00 495.64 L 37.05 497.69 L 42.44 499.26 L 48.20 500.34 L 54.39 500.91 L 61.05 500.94 L 68.22 500.39 L 75.96 499.19 L 84.33 497.30 L 93.38 494.65 L 103.17 491.15 L 113.76 486.73 L 125.20 481.29 L 137.57 474.75 L 150.93 467.00 L 165.34 457.94 L 180.87 447.45 L 197.60 435.43 L 200.90 435.32 L 204.45 434.73 L 208.28 433.60 L 212.45 431.88 L 216.99 429.47 L 221.96 426.29 L 227.40 422.22 L 230.26 421.06 L 232.58 420.60 L 234.48 420.69 L 236.07 421.25 L 237.43 422.28 L 238.62 423.85 L 239.62 426.13 L 240.40 429.20 L 240.62 431.36 L 240.47 434.67 L 240.50 435.87 L 240.88 436.82 L 241.69 437.60 L 243.54 438.55 L 245.26 438.97 L 246.77 438.78 L 248.19 437.99 L 249.60 436.46 L 251.00 433.89 L 252.36 429.93 L 252.70 432.09 L 253.37 433.59 L 254.31 434.59 L 255.55 435.21 L 257.20 435.43 L 258.77 435.19 L 260.20 434.45 L 261.54 433.13 L 262.81 431.08 L 263.98 428.06 L 264.72 430.48 L 265.62 431.94 L 266.63 432.74 L 267.81 433.03 L 269.26 432.80 L 271.16 431.87 L 273.65 429.93 L 274.24 425.15 L 274.28 420.47 L 273.79 415.88 L 272.75 411.32 L 271.16 406.79 L 268.98 402.24 L 266.17 397.67 L 262.67 393.05 L 258.42 388.36 L 259.69 388.20 L 261.18 388.58 L 262.99 389.66 L 265.24 391.71 L 268.06 395.12 L 271.56 400.33 L 275.88 407.84 L 278.16 412.54 L 279.28 414.66 L 280.47 416.30 L 281.41 417.17 L 282.49 417.74 L 283.76 418.03 L 285.07 418.00 L 286.77 417.57 L 288.98 416.62 L 289.94 415.86 L 290.59 414.85 L 290.93 413.53 L 290.95 411.34 L 290.48 408.76 L 289.68 406.19 L 288.66 403.74 L 287.51 401.47 L 286.51 399.86 L 284.78 397.10 L 282.97 393.85 L 281.07 390.51 L 278.77 386.99 L 277.05 384.75 L 274.99 382.56 L 272.59 380.40 L 269.98 378.52 L 266.84 376.78 L 263.09 375.19 L 259.22 374.00 L 254.55 373.07 L 248.97 372.45 L 243.38 372.27 L 236.74 372.53 L 228.89 373.30 L 221.73 375.24 L 215.06 377.56 L 208.86 380.26 L 203.07 383.33 L 197.69 386.77 L 192.68 390.57 L 188.03 394.76 L 183.72 399.33 L 179.73 404.32 L 176.47 406.82 L 171.27 409.99 L 165.39 413.06 L 158.17 416.37 L 150.52 419.49 L 142.17 422.49 L 133.61 425.15 L 125.00 427.36 L 119.21 428.57 L 113.68 429.45 L 108.41 430.02 L 103.12 430.24 L 98.38 430.05 L 94.13 429.47 L 90.99 428.68 L 88.27 427.62 L 85.92 426.31 L 83.90 424.74 L 82.20 422.86 L 80.89 420.63 L 79.96 417.99 L 79.44 414.85 L 79.40 411.80 L 79.83 408.18 L 80.82 403.90 L 82.50 398.83 L 84.42 394.21 L 87.04 388.88 L 90.47 382.73 L 94.81 375.70 L 91.13 370.39 L 87.23 365.74 L 83.12 361.69 L 78.79 358.20 L 74.22 355.25 L 69.40 352.80 L 64.29 350.85 L 58.87 349.40 L 53.10 348.45 L 46.93 348.02 L 40.33 348.15 L 33.25 348.88 Z" fill="#ffbdbd" fill-rule="evenodd" group-id="1,2,9,26" node-id="236" stroke="none" target-height="152.92303" target-width="290.936" target-x="0.009156227" target-y="348.02075"></path><g clip-path="url(#mask-12)" group-id="1,2,9,27" node-id="239"><path d="M 253.42 399.81 L 253.85 399.49 L 254.34 399.37 L 254.85 399.44 L 255.31 399.71 L 258.21 402.75 L 260.64 406.16 L 262.60 409.98 L 264.11 414.25 L 265.14 419.04 L 265.65 424.43 L 265.58 430.49 L 265.51 431.53 L 265.37 431.78 L 263.38 434.97 L 261.57 437.11 L 259.91 438.44 L 258.35 439.15 L 256.71 439.32 L 255.10 438.87 L 253.43 437.70 L 251.62 435.56 L 250.65 433.83 L 249.94 431.89 L 249.46 429.77 L 249.12 427.12 L 248.98 425.24 L 248.88 423.88 L 248.43 420.30 L 247.70 417.50 L 246.75 415.35 L 245.38 413.49 L 243.61 412.08 L 241.37 411.08 L 240.48 410.53 L 240.24 410.11 L 240.19 409.60 L 240.35 409.08 L 240.68 408.67 L 241.13 408.43 L 241.67 408.41 L 244.22 409.24 L 245.97 410.31 L 247.35 411.67 L 248.36 413.12 L 249.91 416.10 L 250.57 417.57 L 251.04 419.27 L 251.59 424.05 L 251.75 426.36 L 252.04 428.92 L 252.44 430.86 L 253.04 432.60 L 253.85 434.06 L 254.99 435.49 L 256.01 436.27 L 256.97 436.56 L 257.92 436.47 L 259.14 435.80 L 260.67 434.21 L 262.62 431.21 L 262.88 430.76 L 262.91 430.32 L 262.97 424.69 L 262.52 419.71 L 261.61 415.29 L 260.28 411.38 L 258.55 407.90 L 256.43 404.81 L 253.90 402.06 L 253.51 401.70 L 253.19 401.27 L 253.07 400.77 L 253.14 400.27 L 253.42 399.81 Z" fill="#fd9b9b" fill-rule="nonzero" group-id="1,2,9,27" node-id="241" stroke="none" target-height="39.95459" target-width="25.460373" target-x="240.18547" target-y="399.36703"></path></g><path d="M 426.32 738.29 L 430.15 741.72 L 434.28 744.66 L 438.73 747.13 L 443.55 749.13 L 448.77 750.66 L 454.43 751.71 L 460.58 752.25 L 467.29 752.23 L 469.61 751.90 L 471.04 752.11 L 471.90 752.68 L 472.37 753.62 L 472.42 755.11 L 471.48 760.87 L 468.44 776.26 L 496.25 820.71 L 502.49 824.70 L 507.59 828.58 L 511.69 832.34 L 514.92 836.01 L 517.37 839.59 L 519.15 843.11 L 520.31 846.60 L 520.91 850.10 L 520.95 853.64 L 520.44 857.28 L 519.34 861.05 L 517.58 865.00 L 482.14 855.83 L 394.00 800.37 L 396.07 792.87 L 398.41 786.39 L 400.97 780.83 L 403.73 776.08 L 406.68 772.06 L 409.82 768.69 L 413.13 765.90 L 414.72 764.89 L 416.28 763.16 L 417.81 760.52 L 419.29 756.66 L 420.66 751.25 L 421.84 743.91 L 422.32 740.89 L 423.05 739.16 L 423.93 738.29 L 424.97 738.00 L 426.32 738.29 Z" fill="#272727" fill-rule="evenodd" group-id="1,2" id="路径-197" node-id="73" stroke="none" target-height="126.99945" target-width="126.95239" target-x="394" target-y="738.00055"></path><path d="M 396.55 793.00 L 517.87 862.76 L 518.71 864.93 L 519.00 867.20 L 518.74 869.64 L 517.87 872.30 L 514.66 877.00 L 388.36 805.95 L 387.45 805.22 L 387.04 804.35 L 387.08 803.24 L 387.69 801.74 L 389.19 799.67 L 391.97 796.83 L 396.55 793.00 Z" fill="#ffffff" fill-rule="evenodd" group-id="1,2" id="路径-198" node-id="74" stroke="none" target-height="84" target-width="131.95593" target-x="387.04358" target-y="793"></path><path d="M 517.71 863.34 L 396.13 793.00 L 395.78 793.28 L 391.42 796.93 L 388.64 799.72 L 387.02 801.83 L 386.15 803.71 L 386.02 805.14 L 386.46 806.28 L 387.50 807.27 L 410.24 820.11 L 514.22 879.00 L 517.76 873.78 L 518.69 870.99 L 519.00 868.45 L 518.76 866.10 L 517.98 863.87 L 517.71 863.34 Z M 396.24 794.61 L 516.71 864.30 L 516.79 864.47 L 517.47 866.43 L 517.68 868.48 L 517.41 870.70 L 516.60 873.13 L 513.81 877.23 L 394.41 809.64 L 388.34 806.22 L 387.63 805.67 L 387.34 804.95 L 387.45 803.97 L 388.15 802.55 L 389.47 800.80 L 391.70 798.49 L 395.16 795.48 L 396.24 794.61 Z" fill="#333333" fill-rule="nonzero" group-id="1,2" id="路径-198备份" node-id="75" stroke="none" target-height="86" target-width="132.97675" target-x="386.02283" target-y="793"></path><path d="M 295.58 787.39 L 301.82 792.81 L 305.04 795.43 L 308.50 797.85 L 312.24 799.90 L 316.56 801.53 L 319.59 802.26 L 323.04 802.71 L 326.97 802.85 L 330.89 802.62 L 335.43 801.96 L 340.69 800.80 L 341.87 800.49 L 342.69 800.68 L 343.32 801.34 L 343.77 802.68 L 343.83 803.86 L 343.67 806.30 L 342.93 812.35 L 341.94 819.06 L 341.06 824.68 L 340.69 827.44 L 341.39 829.45 L 347.15 843.37 L 366.75 889.23 L 372.78 896.33 L 377.52 902.78 L 381.14 908.66 L 383.78 914.01 L 385.57 918.90 L 386.62 923.40 L 387.00 927.57 L 386.77 931.46 L 385.97 935.13 L 384.60 938.63 L 382.63 942.00 L 290.61 884.34 L 251.00 841.45 L 254.47 835.60 L 258.29 830.28 L 262.45 825.46 L 266.97 821.10 L 271.85 817.20 L 277.13 813.72 L 282.82 810.67 L 292.40 790.21 L 293.47 788.03 L 294.27 787.16 L 294.92 787.01 L 295.58 787.39 Z" fill="#272727" fill-rule="evenodd" group-id="1,2" id="路径-242" node-id="76" stroke="none" target-height="154.98956" target-width="135.99585" target-x="251" target-y="787.01044"></path><path d="M 250.77 842.00 L 382.34 941.13 L 382.94 943.29 L 382.90 945.38 L 382.22 947.49 L 380.80 949.71 L 376.36 955.00 L 242.23 854.31 L 241.28 852.57 L 241.00 851.01 L 241.28 849.52 L 242.18 848.01 L 243.88 846.42 L 248.39 843.27 L 250.77 842.00 Z" fill="#ffffff" fill-rule="evenodd" group-id="1,2" id="路径-243" node-id="77" stroke="none" target-height="113" target-width="141.94154" target-x="241.00005" target-y="842"></path><path d="M 383.23 941.65 L 252.44 841.00 L 252.09 841.14 L 249.65 842.47 L 245.12 845.70 L 243.29 847.47 L 242.31 849.17 L 242.00 850.86 L 242.31 852.64 L 243.35 854.62 L 243.48 854.76 L 376.82 957.00 L 377.23 956.57 L 381.68 951.17 L 382.94 949.25 L 383.69 947.39 L 383.99 945.56 L 383.86 943.72 L 383.30 941.81 L 383.23 941.65 Z M 252.25 842.54 L 382.14 942.50 L 382.07 942.33 L 382.62 944.33 L 382.58 946.27 L 381.95 948.25 L 380.64 950.33 L 379.17 952.18 L 376.84 955.01 L 376.67 955.20 L 244.37 853.75 L 244.42 853.83 L 243.58 852.29 L 243.33 850.90 L 243.58 849.57 L 244.39 848.21 L 245.92 846.78 L 246.79 846.12 L 250.00 843.84 L 251.98 842.67 L 252.25 842.54 Z" fill="#333333" fill-rule="nonzero" group-id="1,2" id="路径-243备份" node-id="78" stroke="none" target-height="116" target-width="141.98682" target-x="242.0028" target-y="841"></path><path d="M 490.81 848.00 L 492.00 848.61 L 485.19 860.00 L 484.00 859.39 Z" fill="#272727" fill-rule="nonzero" group-id="1,2" id="路径-217" node-id="79" stroke="none" target-height="12" target-width="8" target-x="484" target-y="848"></path><path d="M 389.66 798.00 L 489.00 853.84 L 488.34 855.00 L 389.00 799.16 Z" fill="#272727" fill-rule="nonzero" group-id="1,2" id="路径-218" node-id="80" stroke="none" target-height="57" target-width="100" target-x="389" target-y="798"></path><path d="M 355.90 920.00 L 357.00 920.70 L 349.10 932.00 L 348.00 931.30 Z" fill="#272727" fill-rule="nonzero" group-id="1,2" id="路径-219" node-id="81" stroke="none" target-height="12" target-width="9" target-x="348" target-y="920"></path><path d="M 244.83 847.00 L 351.00 928.95 L 350.17 930.00 L 244.00 848.05 Z" fill="#272727" fill-rule="nonzero" group-id="1,2" id="路径-220" node-id="82" stroke="none" target-height="83" target-width="107" target-x="244" target-y="847"></path><path d="M 347.38 827.34 L 347.83 827.07 L 348.33 827.00 L 348.81 827.13 L 349.23 827.46 L 349.49 827.94 L 349.56 828.45 L 349.43 828.95 L 349.11 829.39 L 348.07 830.34 L 341.62 836.62 L 337.05 841.75 L 333.99 845.90 L 332.11 849.24 L 331.13 851.85 L 330.77 854.00 L 330.90 855.79 L 331.45 857.33 L 332.44 858.68 L 333.92 859.87 L 335.69 860.77 L 337.21 861.09 L 338.58 860.95 L 339.87 860.35 L 341.13 859.22 L 342.39 857.39 L 343.67 854.51 L 344.90 850.23 L 346.02 844.13 L 346.93 835.73 L 347.16 835.06 L 347.59 834.65 L 348.16 834.49 L 348.74 834.58 L 349.22 834.92 L 349.53 835.56 L 349.81 836.91 L 351.79 845.13 L 353.57 850.93 L 355.15 854.84 L 356.78 857.74 L 358.10 859.21 L 359.19 859.78 L 360.18 859.73 L 361.72 859.03 L 363.01 858.04 L 364.09 856.74 L 364.85 855.24 L 365.27 853.53 L 365.34 851.55 L 364.85 848.96 L 363.63 846.06 L 361.52 842.75 L 358.99 839.75 L 355.52 836.43 L 350.94 832.75 L 350.59 832.35 L 350.41 831.86 L 350.43 831.34 L 350.64 830.85 L 351.03 830.48 L 351.50 830.30 L 351.99 830.31 L 352.48 830.53 L 357.32 834.44 L 361.04 838.03 L 363.79 841.35 L 365.58 844.11 L 366.83 846.67 L 367.61 849.07 L 367.97 851.34 L 367.87 853.97 L 367.29 856.26 L 366.26 858.29 L 364.80 860.04 L 363.06 861.37 L 360.98 862.33 L 359.32 862.56 L 357.74 862.17 L 356.15 861.08 L 354.47 859.06 L 352.75 855.97 L 350.91 851.34 L 348.95 844.74 L 348.71 843.80 L 348.65 844.20 L 348.48 845.31 L 347.24 851.54 L 345.83 856.11 L 344.30 859.37 L 342.72 861.60 L 341.07 863.03 L 339.34 863.80 L 337.46 863.99 L 335.33 863.56 L 332.83 862.37 L 332.55 862.19 L 330.47 860.53 L 329.08 858.73 L 328.26 856.75 L 327.99 854.52 L 328.32 851.95 L 329.35 848.92 L 330.97 845.80 L 333.40 842.16 L 336.81 837.93 L 341.40 833.02 L 347.38 827.34 Z" fill="#ffffff" fill-rule="nonzero" group-id="1,2" id="路径-357" node-id="83" stroke="none" target-height="36.985718" target-width="39.970703" target-x="327.99432" target-y="827.00305"></path><path d="M 468.21 775.26 L 468.81 775.01 L 469.49 775.10 L 474.04 777.15 L 477.80 779.20 L 480.85 781.22 L 483.30 783.23 L 485.58 785.62 L 487.21 787.93 L 488.28 790.20 L 488.87 792.44 L 488.95 795.02 L 488.45 797.33 L 487.42 799.38 L 486.02 800.95 L 484.87 801.72 L 483.66 802.19 L 482.35 802.36 L 481.06 802.17 L 479.72 801.54 L 478.29 800.40 L 476.73 798.57 L 475.02 795.88 L 474.91 795.67 L 474.94 795.87 L 475.27 800.37 L 475.06 803.51 L 474.49 805.63 L 474.39 805.85 L 473.34 807.52 L 472.07 808.51 L 470.52 808.96 L 468.81 808.93 L 466.67 808.48 L 463.97 807.47 L 462.49 806.55 L 461.35 805.22 L 460.52 803.40 L 460.06 800.93 L 460.06 797.63 L 460.55 793.88 L 461.60 789.13 L 463.36 783.19 L 465.98 775.87 L 466.27 775.41 L 466.69 775.12 L 467.19 775.00 L 467.72 775.09 L 467.99 775.24 L 468.11 775.34 L 468.21 775.26 Z M 468.35 777.57 L 468.24 777.50 L 467.74 778.83 L 465.03 786.87 L 463.48 792.86 L 462.79 797.20 L 462.73 800.62 L 463.18 802.82 L 463.96 804.18 L 465.02 804.95 L 467.91 805.99 L 469.69 806.23 L 470.68 806.04 L 471.42 805.55 L 471.95 804.72 L 472.42 803.09 L 472.60 800.46 L 472.31 796.43 L 471.19 790.04 L 468.84 780.63 L 468.64 779.91 L 471.20 779.11 L 471.62 780.41 L 473.88 786.81 L 475.84 791.50 L 477.52 794.82 L 479.14 797.30 L 480.43 798.73 L 481.47 799.43 L 482.35 799.63 L 483.44 799.39 L 484.49 798.69 L 485.34 797.65 L 485.98 796.25 L 486.29 794.68 L 486.22 792.89 L 485.75 791.08 L 484.84 789.21 L 483.42 787.25 L 481.41 785.16 L 478.44 782.83 L 474.41 780.40 L 469.10 777.89 L 468.49 777.64 L 468.35 777.57 Z" fill="#ffffff" fill-rule="nonzero" group-id="1,2" id="路径-358" node-id="84" stroke="none" target-height="33.95691" target-width="28.893372" target-x="460.06146" target-y="775.00073"></path></g></g></svg>